<svg id="Layer_1" data-name="Layer 1" xmlns="http://www.w3.org/2000/svg" viewBox="0 0 48 48"><defs><style>.cls-1{fill:#07578c;}.cls-2{fill:#2f2f08;}.cls-3{fill:#fff;}</style></defs><path class="cls-1" d="M46,26.43V7.37A2.18,2.18,0,0,0,42.69,5.5L27,15Z"/><path class="cls-1" d="M2,26.43V7.37A2.18,2.18,0,0,1,5.31,5.5L21.05,15Z"/><path class="cls-1" d="M46,26.35c0-11-10.07-19.42-22-19.42S2,15.39,2,26.35,9.2,44.46,24,44.46,46,37.3,46,26.35Z"/><rect class="cls-2" x="8.68" y="18.79" width="11.24" height="15.12" rx="5.56"/><path class="cls-3" d="M14.35,20.29a4.06,4.06,0,0,1,4.06,4.06v4a4.07,4.07,0,0,1-4.06,4.06h-.12a4.07,4.07,0,0,1-4.05-4.06v-4a4.06,4.06,0,0,1,4.05-4.06h.12m0-3h-.12a7.06,7.06,0,0,0-7,7.06v4a7.06,7.06,0,0,0,7.05,7.06h.12a7.07,7.07,0,0,0,7.06-7.06v-4a7.06,7.06,0,0,0-7.06-7.06Z"/><rect class="cls-2" x="28.09" y="18.79" width="11.24" height="15.12" rx="5.56"/><path class="cls-3" d="M33.77,20.29a4.06,4.06,0,0,1,4,4.06v4a4.07,4.07,0,0,1-4,4.06h-.12a4.07,4.07,0,0,1-4.06-4.06v-4a4.06,4.06,0,0,1,4.06-4.06h.12m0-3h-.12a7.06,7.06,0,0,0-7.06,7.06v4a7.07,7.07,0,0,0,7.06,7.06h.12a7.06,7.06,0,0,0,7-7.06v-4a7.06,7.06,0,0,0-7-7.06Z"/></svg>